# xmcd CD database file
#
# Track frame offsets:
#	150
#	17250
#	32444
#	50914
#	73412
#	92284
#	117320
#	135152
#	150801
#	167253
#	183119
#	208077
#
# Disc length: 3059 seconds
#
# Revision: 0
# Processed by: cddbd v1.5.1PL2 Copyright (c) Steve Scherf et al.
# Submitted via: CDex 1.51
#
DISCID=870bf10c
DTITLE=Nancy Murillo - Tía Yova
DYEAR=2006
DGENRE=Salsa
TTITLE0=El chontaduro
TTITLE1=Pa' Barranquilla
TTITLE2=Barrendera
TTITLE3=Plaza Caicedo
TTITLE4=Chiquita Banana
TTITLE5=Olgo Linda Guajirita
TTITLE6=Carnavalera
TTITLE7=Cumbia Bigouden
TTITLE8=No Puedo Mas
TTITLE9=Consentida
TTITLE10=Cumbia Nene
TTITLE11=Africa Mia
EXTD=YEAR: 2006
EXTT0=
EXTT1=
EXTT2=
EXTT3=
EXTT4=
EXTT5=
EXTT6=
EXTT7=
EXTT8=
EXTT9=
EXTT10=
EXTT11=
PLAYORDER=
